Coordinates
version=1
nRows=17
nColumns=24
inDegrees=yes

Units are S.I. units (second, meters, Newtons, ...)
Angles are in degrees.

endheader
time	pelvis_tilt	pelvis_list	pelvis_rotation	pelvis_tx	pelvis_ty	pelvis_tz	hip_flexion_r	hip_adduction_r	hip_rotation_r	knee_angle_r	ankle_angle_r	subtalar_angle_r	mtp_angle_r	hip_flexion_l	hip_adduction_l	hip_rotation_l	knee_angle_l	ankle_angle_l	subtalar_angle_l	mtp_angle_l	lumbar_extension	lumbar_bending	lumbar_rotation
      0.67800000	      4.02125218	      3.58814482	      3.75951360	      0.02008698	      0.97192474	      0.25877791	     20.94444817	     -5.98701312	     -7.09983903	      5.77160809	      3.78563659	     -1.72685366	     -0.02644304	    -32.23744111	      4.07208748	     12.26836557	      5.30914284	      7.58113477	    -10.02774749	     -0.31358750	    -16.14287328	      7.07844864	    -14.85075493
      0.68216667	      3.94398024	      3.47928523	      3.82700407	      0.02631991	      0.97107262	      0.25912102	     21.05767107	     -5.87881515	     -6.58504153	      5.26623888	      3.53861262	     -2.36607949	     -0.03439935	    -32.37445954	      3.91577008	     12.04995196	      5.02327445	      7.54024203	     -9.74453052	     -0.44550342	    -15.99752158	      7.24795794	    -14.88980748
      0.68633333	      3.88404865	      3.34093318	      3.89641735	      0.03260332	      0.97028264	      0.25946801	     21.14863666	     -5.73561001	     -6.09679514	      4.73349093	      3.23050428	     -3.02066752	     -0.04337989	    -32.50674233	      3.73316204	     11.78098319	      4.68974534	      7.51651768	     -9.41972231	     -0.52766222	    -15.88280667	      7.45406203	    -14.86619299
      0.69050000	      3.81023672	      3.19166340	      3.95533504	      0.03892957	      0.96950258	      0.25985578	     21.26395782	     -5.57325432	     -5.59965117	      4.15661809	      2.86079214	     -3.69342795	     -0.05135983	    -32.61657185	      3.54550321	     11.50483842	      4.34353383	      7.47282415	     -9.10455375	     -0.55278682	    -15.74078018	      7.66825110	    -14.84379876
      0.69466667	      3.73154206	      3.02112184	      4.00568492	      0.04531032	      0.96874191	      0.26027600	     21.39034269	     -5.38116436	     -5.11272651	      3.54688638	      2.41698568	     -4.38437427	     -0.05591171	    -32.71398617	      3.34200745	     11.21424188	      3.98358103	      7.40717341	     -8.79858321	     -0.52522646	    -15.59258385	      7.90282158	    -14.81249706
      0.69883333	      3.64370835	      2.83468360	      4.04960268	      0.05172570	      0.96800526	      0.26072864	     21.53376252	     -5.16501661	     -4.63670000	      2.90882666	      1.89700299	     -5.10276678	     -0.05465178	    -32.78687846	      3.12764837	     10.90722985	      3.59868469	      7.32670260	     -8.49657563	     -0.44544513	    -15.43633075	      8.15162817	    -14.77194984
      0.70300000	      3.54748517	      2.62906022	      4.08530290	      0.05819951	      0.96728133	      0.26122006	     21.69158223	     -4.92086472	     -4.16993324	      2.24660392	      1.30539931	     -5.83482018	     -0.04646322	    -32.84358121	      2.89871114	     10.58695096	      3.19883309	      7.21793257	     -8.20780859	     -0.31608852	    -15.26413727	      8.42296371	    -14.72612233
      0.70716667	      3.45136289	      2.41144051	      4.11381875	      0.06470195	      0.96659674	      0.26174321	     21.86163477	     -4.65614887	     -3.73460552	      1.55406634	      0.64007566	     -6.58005864	     -0.02817128	    -32.88476051	      2.66233324	     10.25146083	      2.77126005	      7.09032933	     -7.93035795	     -0.13222260	    -15.08136826	      8.70602940	    -14.67513646
      0.71133333	      3.34557993	      2.17471503	      4.13733267	      0.07124990	      0.96593235	      0.26228738	     22.04682422	     -4.36666618	     -3.31969018	      0.84500198	     -0.08743354	     -7.32779581	      0.00612587	    -32.90077735	      2.41166094	      9.89979466	      2.31657352	      6.94003073	     -7.65464809	      0.12833190	    -14.89897902	      9.00906227	    -14.61684429
      0.71550000	      3.22435080	      1.92525223	      4.14655885	      0.07784592	      0.96527158	      0.26287717	     22.27523746	     -4.05591006	     -2.94917776	      0.07885446	     -0.85898937	     -8.03504999	      0.04748589	    -32.90413576	      2.15367354	      9.56535861	      1.87307601	      6.75379244	     -7.40717672	      0.41225252	    -14.67863359	      9.32007641	    -14.55432462
      0.71966667	      3.10310512	      1.66201434	      4.15083201	      0.08447226	      0.96465025	      0.26349213	     22.51343798	     -3.72581549	     -2.61366511	     -0.71122691	     -1.67171159	     -8.73466891	      0.10238568	    -32.88585129	      1.88607975	      9.20583505	      1.38951567	      6.54223219	     -7.16770497	      0.74660303	    -14.46507567	      9.65029486	    -14.49019046
      0.72383333	      2.99315162	      1.38573213	      4.14029481	      0.09112783	      0.96406645	      0.26413951	     22.77589700	     -3.37762836	     -2.36309091	     -1.57808658	     -2.43642663	     -9.28375349	      1.01092004	    -32.83777918	      1.61192900	      8.68398455	      0.83357143	      6.27712435	     -6.74786088	      5.00262810	    -14.27634947	      9.98851305	    -14.38330585
      0.72800000	      2.85193025	      1.10114444	      4.13571088	      0.09781729	      0.96348651	      0.26480362	     23.06590190	     -3.01967124	     -2.10014177	     -2.43684684	     -3.30349158	     -9.94230703	      1.02019901	    -32.80056594	      1.32633129	      8.44827846	      0.36415020	      5.93906529	     -6.75724594	      5.08117537	    -14.02961522	     10.34613282	    -14.35342149
      0.73216667	      2.71294067	      0.81286752	      4.11265242	      0.10452688	      0.96293583	      0.26551745	     23.38113226	     -2.64949884	     -1.87079414	     -3.35611328	     -4.12497244	    -10.54669117	      1.04701699	    -32.72849306	      1.04596888	      8.10357676	     -0.17785036	      5.62311724	     -6.60496729	      5.23271374	    -13.79739026	     10.69869350	    -14.27909154
      0.73633333	      2.57733960	      0.51530044	      4.08262880	      0.11126182	      0.96242121	      0.26625782	     23.71355197	     -2.26677979	     -1.68858002	     -4.32580571	     -4.90245256	    -11.09224639	      1.09398554	    -32.64071863	      0.75804310	      7.73292321	     -0.75470332	      5.28705651	     -6.41774896	      5.47661593	    -13.57118791	     11.06084964	    -14.20718474
      0.74050000	      2.45829809	      0.18164982	      4.06479511	      0.11805097	      0.96196171	      0.26698055	     24.04855025	     -1.85785849	     -1.64742786	     -5.35267892	     -5.61386595	    -11.46923537	      1.79224373	    -32.53912749	      0.42443439	      7.27114768	     -1.38412603	      4.94348440	     -6.07610690	      8.59106164	    -13.35986661	     11.47097464	    -14.06933387
      0.74466667	      2.30824665	     -0.09033202	      3.98313722	      0.12479197	      0.96146587	      0.26783839	     24.46211886	     -1.48187028	     -1.47618439	     -6.47398153	     -6.21307679	    -11.89747428	      1.80232886	    -32.43393015	      0.18532016	      6.99034421	     -1.95452750	      4.43694259	     -6.12978599	      8.67997182	    -13.13627741	     11.78829883	    -14.05947110
